<svg version="1" xmlns="http://www.w3.org/2000/svg" width="693.333" height="693.333" viewBox="0 0 520.000000 520.000000"><path d="M0 257v256h169c160.3 0 169-.1 169.1-1.8.1-2.2.1-91.4 0-92.5-.1-.4-48.4-.7-107.4-.7H123.4V1.5l-61.7-.3L0 1v256zM391.5 6.7c.2 3.2.6 13.2.9 22.3.3 9.1.8 19.9 1.1 24 .3 4.1.7 14 1 22 .4 8 .8 18.8 1 24 .3 5.2.7 15.3 1 22.5.6 15 1.4 33.3 2 45.5.2 4.7.7 15.7 1 24.5.3 8.8.8 19.1 1 23 .2 3.8.7 14 1 22.5.4 8.5.8 19.5 1 24.5.3 4.9.7 15.3 1 23 .3 7.7.7 17.1.9 21 .6 10.1 1.9 41.7 1.8 43.7-.1 1.7 2.8 1.8 47.8 1.8 37.3 0 47.9-.3 48.3-1.3.2-.6.5-5 .6-9.7.1-4.7.4-11 .6-14 .2-3 .6-12.9 1-22 .3-9.1.8-20.3 1-25 .5-9.7 1.3-28.2 2-45 .6-14.9 1.6-36.7 2-45 .2-3.6.6-14.8 1-25s.9-21.4 1-25c.2-3.6.6-13.3 1-21.5.3-8.3.8-18.7 1-23.3.2-4.6.7-15.4 1-24 .4-8.6.8-18.4 1-21.7.2-3.3.6-14.3 1-24.5s.8-19.5 1-20.8l.2-2.2H391.3l.2 5.7zM437.4 402.1c-37.1 7.5-58 41.7-46.7 76.4 5 15.4 18.5 29.2 35.1 35.8 16.3 6.5 39.3 6.4 56.1-.3 19.2-7.5 33.7-25.1 36.7-44.3.7-4.9.7-17.1 0-20.6-3.5-16.3-11.7-28.4-25.6-37.5-15.6-10.2-35.4-13.6-55.6-9.5z"/></svg>